<?xml version="1.0" standalone="no"?><!DOCTYPE svg PUBLIC "-//W3C//DTD SVG 1.1//EN" "http://www.w3.org/Graphics/SVG/1.1/DTD/svg11.dtd"><svg t="1596002752844" class="icon" viewBox="0 0 1024 1024" version="1.1" xmlns="http://www.w3.org/2000/svg" p-id="4060" xmlns:xlink="http://www.w3.org/1999/xlink" width="200" height="200"><defs><style type="text/css"></style></defs><path d="M514.267 637.73c110.524 0 255.727-147.353 255.727-333.756 0-186.368-93.184-260.044-255.727-260.044s-260.062 71.509-260.062 260.044c0 185.105 149.539 333.756 260.062 333.756z m505.515 243.251c-12.39-35.123-27.238-69.734-41.694-85.111-26.863-28.536-181.128-110.387-249.327-145.835a37.035 37.035 0 0 0-49.698 15.275l-77.892 144.094c-10.991 20.326-41.575 14.745-44.68-8.158a23.938 23.938 0 0 1 2.508-14.285l17.203-32.836a23.842 23.842 0 0 0-2.884-26.454l-32.939-39.048a37.069 37.069 0 0 0-56.695 0.017l-32.853 39.014a23.893 23.893 0 0 0-2.885 26.47l17.203 32.82a23.833 23.833 0 0 1 2.51 14.285c-3.09 22.903-33.69 28.484-44.681 8.158l-77.893-144.094a37.035 37.035 0 0 0-49.698-15.275C227.19 685.466 72.923 767.3 46.06 795.853 31.588 811.23 16.74 845.84 4.367 880.964c-17.05 48.35 18.585 99.072 69.853 99.072h875.657c51.32 0.034 86.972-50.705 69.905-99.055z" p-id="4061" fill="#bfbfbf"></path></svg>